<svg width="1280" height="1695" viewBox="0 0 1280 1695" fill="none" xmlns="http://www.w3.org/2000/svg">
<g style="mix-blend-mode:soft-light" opacity="0.58">
<path d="M-1745.47 3433.14C-1745.65 3433.87 -1745.65 3434.63 -1745.47 3435.36C-1744.79 3437.47 -1743.38 3439.3 -1741.47 3440.58C-1739.55 3441.86 -1737.23 3442.51 -1734.88 3442.42C-1733.44 3442.5 -1732.01 3442.26 -1730.7 3441.71C-1718.42 3436.67 -1706.95 3430.07 -1696.62 3422.09C-1686.4 3414.17 -1675.78 3406.26 -1665.07 3398.6C-1654.36 3390.94 -1643.47 3383.22 -1632.67 3375.82C-1626.57 3371.61 -1620.47 3367.28 -1614.36 3363.32L-1614 3363.12C-1613.84 3362.88 -1613.63 3362.67 -1613.39 3362.49L-1556.64 3322.4C-1556.5 3322.28 -1556.33 3322.18 -1556.15 3322.12L-1275.45 3124.74L-1172.27 3052.64L-903.35 2867.27L-802.117 2790.96C-796.778 2787.03 -791.438 2783.11 -786.038 2779.18C-768.403 2766.33 -750.127 2753.89 -731.699 2742.16C-712.508 2729.77 -692.615 2718.01 -672.509 2707.19C-652.403 2696.37 -631.381 2685.78 -610.299 2676.13L-609.749 2675.93L-609.292 2675.7L-578.446 2662.77L-607.095 2656.11C-607.514 2656.07 -607.917 2655.94 -608.272 2655.72C-608.627 2655.51 -608.924 2655.23 -609.139 2654.89C-609.437 2654.46 -609.596 2653.97 -609.596 2653.46C-609.596 2652.96 -609.437 2652.46 -609.139 2652.04C-608.807 2651.6 -608.335 2651.26 -607.788 2651.07C-607.242 2650.89 -606.648 2650.87 -606.088 2651.01C-605.967 2651 -605.844 2651 -605.722 2651.01L-601.939 2651.95L-569.445 2659.44L-549.278 2663.09C-524.644 2667.62 -499.444 2668.86 -474.436 2666.76C-470.256 2666.76 -466.229 2666.42 -462.232 2666.22C-437.636 2665.02 -413.301 2660.94 -389.8 2654.06C-365.435 2646.98 -342.27 2636.7 -321 2623.54C-299.435 2610.31 -280.051 2594.23 -263.457 2575.79C-248.603 2559.42 -237.214 2540.57 -229.896 2520.23C-229.418 2518.84 -229.191 2517.37 -229.225 2515.91C-231.269 2497.68 -233.435 2479.29 -235.662 2461.24C-238.132 2436.69 -235.522 2411.94 -227.974 2388.31C-220.943 2365.92 -210.017 2344.76 -195.633 2325.67C-169.57 2291.21 -136.941 2261.51 -99.3724 2238.06C-80.8431 2228.39 -61.2942 2220.54 -41.0367 2214.62C-17.4479 2207.74 5.14612 2198.17 26.2385 2186.15C45.8289 2175.01 64.2205 2162.12 81.1571 2147.68C99.5427 2132.17 115.741 2114.55 129.363 2095.23C143.477 2075.38 153.733 2053.37 159.66 2030.2C165.443 2008.28 167.817 1985.69 166.708 1963.14C164.847 1955.37 163.047 1947.59 161.186 1939.91C154.788 1917 145.873 1894.78 134.581 1873.59C134.44 1873.36 134.318 1873.12 134.215 1872.88L132.781 1870.63L129.729 1869.49C106.37 1861.81 83.8856 1851.99 62.6068 1840.16C41.283 1828.29 21.2363 1814.53 2.74548 1799.07C0.304688 1796.99 -2.10571 1794.94 -4.51599 1793.01C-25.0214 1777.95 -43.7485 1760.89 -60.3804 1742.12C-75.0448 1725.37 -87.9106 1707.32 -98.7928 1688.22C-98.7814 1688.12 -98.7814 1688.01 -98.7928 1687.91L-120.76 1632.9C-121.018 1632.26 -120.992 1631.55 -120.689 1630.92C-120.386 1630.3 -119.83 1629.81 -119.143 1629.57C-118.455 1629.34 -117.698 1629.37 -117.035 1629.66C-116.373 1629.95 -115.858 1630.47 -115.604 1631.1L-93.6671 1685.95C-83.0502 1704.7 -70.4803 1722.43 -56.1394 1738.88C-39.7876 1757.34 -21.3779 1774.13 -1.22083 1788.96C1.18945 1790.96 3.66077 1792.98 6.13208 1795.06C24.3417 1810.26 44.0936 1823.77 65.1086 1835.41C86.1583 1847.15 108.421 1856.89 131.56 1864.48H131.713L135.649 1866.02H135.984C145.245 1870.8 154.86 1874.95 164.755 1878.46C188.757 1886.87 213.953 1891.95 239.536 1893.52C263.829 1895.02 288.185 1891.68 310.991 1883.73C334.534 1875.58 355.389 1861.84 371.493 1843.86C388.045 1825.52 400.95 1804.57 409.601 1781.99C417.992 1760.31 420.097 1736.95 415.703 1714.28C411.299 1690.66 401.085 1668.32 385.864 1649.01C371.669 1640.74 359.1 1630.25 348.702 1618.01C334.803 1602.17 327.529 1582.17 328.23 1561.71C328.582 1552.7 330.777 1543.84 334.698 1535.6C334.882 1535.25 335.142 1534.94 335.463 1534.68C335.783 1534.43 336.156 1534.24 336.559 1534.12C349.131 1531.18 361.971 1529.35 374.91 1528.66C400.181 1527.27 425.526 1529.71 449.966 1535.86C471.991 1540.76 494.36 1544.19 516.906 1546.14C541.898 1548.64 567.094 1543.65 588.849 1531.9C611.524 1519.86 630.451 1502.52 643.768 1481.59C656.879 1461.15 665.45 1438.46 668.969 1414.87C672.42 1391.54 670.633 1367.79 663.721 1345.14C656.573 1322.57 645.979 1301.08 632.265 1281.33C618.221 1260.99 600.759 1242.9 580.55 1227.74C561.351 1213.32 540.095 1201.45 517.394 1192.49L471.476 1179.82C446.216 1171.84 422.104 1160.98 399.685 1147.5C387.606 1140.05 376.096 1131.82 365.239 1122.87C344.141 1107.98 324.273 1091.63 305.805 1073.95C287.475 1056.45 270.461 1037.78 254.883 1018.09C253.144 1015.95 251.374 1013.7 249.483 1011.48C249.256 1011.21 249.088 1010.91 248.988 1010.58C248.888 1010.25 248.859 1009.91 248.901 1009.57C248.943 1009.23 249.057 1008.9 249.235 1008.61C249.414 1008.31 249.653 1008.05 249.94 1007.84C250.228 1007.63 250.557 1007.48 250.908 1007.39C251.259 1007.3 251.626 1007.28 251.986 1007.32C252.347 1007.37 252.694 1007.48 253.008 1007.65C253.322 1007.82 253.596 1008.05 253.815 1008.32C255.737 1010.54 257.598 1012.79 259.338 1015.01C274.742 1034.52 291.583 1053.01 309.74 1070.34C328.037 1087.84 347.732 1104.02 368.656 1118.74V1118.89C379.339 1127.69 390.677 1135.78 402.583 1143.09C424.542 1156.36 448.187 1167.02 472.971 1174.84L518.919 1187.54C543.823 1194.66 569.345 1199.75 595.195 1202.74C619.401 1205.55 643.786 1206.81 668.176 1206.5C692.506 1206.1 716.769 1204 740.76 1200.21C750.813 1198.64 760.749 1196.49 770.508 1193.74C794.865 1186.82 818.233 1177.16 840.102 1164.99C862.253 1152.53 882.738 1137.66 901.122 1120.68C906.584 1115.9 911.923 1111.06 916.988 1106.07C919.14 1103.96 920.903 1101.52 922.205 1098.87C926.431 1090.3 929.683 1081.34 931.907 1072.13C937.828 1048.43 947.417 1025.66 960.373 1004.53C968.862 990.414 978.948 977.184 990.457 965.069C990.784 964.751 991.186 964.509 991.63 964.361C992.075 964.212 992.551 964.163 993.019 964.215C1012.15 967.343 1031.72 967.294 1050.84 964.073C1075.66 959.885 1098.86 949.672 1118.11 934.46C1137.27 919.196 1153.3 900.806 1165.4 880.188C1177.62 859.764 1185.09 837.169 1187.34 813.872C1189.69 791.069 1188.02 768.062 1182.4 745.763L1167.78 693.57L1155.98 668.655C1145.66 646.78 1133.77 625.584 1120.37 605.215L1119.55 603.962C1110.67 593.626 1101.45 583.176 1092.24 572.84C1078.05 556.638 1062.95 540.75 1047.39 525.63C1031.83 510.51 1015.38 495.903 998.572 481.809C981.761 467.714 963.668 453.79 945.271 441.034C926.873 428.277 907.407 416.261 887.606 405.128C867.805 393.995 847.241 383.659 826.433 374.12C816.427 370.073 806.651 365.549 797.143 360.566C774.689 348.733 755.132 332.653 739.723 313.356C724.25 294.28 713.374 272.31 707.839 248.948C707.839 248.806 707.839 248.692 707.839 248.606L703.72 201.568C703.69 201.207 703.69 200.846 703.72 200.485C704.592 183.844 707.478 167.347 712.324 151.311C719.303 127.764 730.764 105.58 746.16 85.8207L766.816 61.5039L767.029 61.2761C785.752 44.3425 806.445 29.415 828.721 16.7712C833.603 13.9239 838.607 11.0764 843.61 8.3714L844.129 8.02972C844.526 7.76068 844.986 7.58484 845.471 7.51721H845.624C845.918 7.22601 846.302 7.02704 846.722 6.94769C846.861 6.82098 847.028 6.72382 847.211 6.66296C868.014 -1.75043 889.579 -8.42065 911.648 -13.2689C936.432 -18.6725 961.773 -21.5368 987.223 -21.811H992.531C992.754 -21.8406 992.98 -21.8406 993.202 -21.811C1016.92 -16.6351 1041.03 -13.2358 1065.33 -11.6458C1089.29 -10.1172 1113.35 -10.3553 1137.27 -12.3577C1161.37 -14.433 1185.23 -18.4824 1208.57 -24.4591C1233.07 -30.7071 1256.48 -40.2103 1278.08 -52.6769C1299.75 -65.1898 1319.48 -80.4129 1336.72 -97.9221C1353.36 -114.853 1366.83 -134.266 1376.6 -155.354C1385.89 -175.292 1391.59 -196.525 1393.47 -218.196C1393.65 -221.044 1393.8 -223.891 1393.93 -226.738C1390.99 -249.454 1384.29 -271.606 1374.06 -292.399C1363.24 -314.079 1348.06 -333.616 1329.33 -349.945C1317.06 -360.605 1303.78 -370.22 1289.67 -378.676C1289.05 -379.04 1288.61 -379.618 1288.44 -380.285C1288.28 -380.952 1288.4 -381.653 1288.79 -382.235C1289.19 -382.815 1289.83 -383.222 1290.55 -383.366C1291.28 -383.51 1292.04 -383.38 1292.66 -383.004C1307.12 -374.4 1320.72 -364.604 1333.3 -353.732C1352.46 -336.871 1368 -316.75 1379.07 -294.45C1388.76 -274.696 1395.36 -253.742 1398.65 -232.234C1399.39 -232.974 1400.15 -233.629 1400.91 -234.341C1415.11 -247.909 1427.65 -262.902 1438.32 -279.045C1443.67 -287.417 1448.44 -296.1 1452.6 -305.042C1462.64 -326.304 1470.54 -348.39 1476.21 -371.016C1481.61 -392.741 1485.57 -414.755 1488.08 -436.933C1490.56 -459.197 1491.58 -481.582 1491.13 -503.961C1490.86 -526.36 1488.41 -548.69 1483.81 -570.676C1479.33 -592.387 1472.8 -613.684 1464.28 -634.315C1455.45 -655.387 1444.48 -675.628 1431.54 -694.765C1418.13 -714.577 1401.89 -732.595 1383.28 -748.325C1363.87 -764.556 1342.13 -778.175 1318.69 -788.787C1298.11 -798.142 1276.24 -804.792 1253.7 -808.548C1228.92 -812.777 1203.43 -811.805 1179.1 -805.7C1157.09 -800.212 1136.22 -791.329 1117.35 -779.419C1135.84 -770.877 1154.14 -761.708 1171.75 -751.77C1193.95 -739.251 1215.29 -725.462 1235.67 -710.483C1254.38 -696.674 1271.46 -681.028 1286.59 -663.814C1302.44 -645.401 1313.57 -623.846 1319.11 -600.801C1325.51 -577.403 1326.5 -553 1322.01 -529.218C1321.89 -528.571 1321.5 -527.993 1320.93 -527.602C1320.37 -527.21 1319.66 -527.035 1318.96 -527.111C1318.27 -527.229 1317.64 -527.588 1317.22 -528.116C1316.8 -528.644 1316.6 -529.302 1316.67 -529.958C1321.03 -553.05 1320.08 -576.743 1313.87 -599.463C1308.44 -621.828 1297.61 -642.739 1282.2 -660.597C1267.32 -677.515 1250.54 -692.885 1232.13 -706.44C1211.97 -721.298 1190.86 -734.991 1168.91 -747.442C1150.06 -757.978 1130.53 -767.83 1110.76 -776.714H1110.55C1089.92 -787.562 1068.36 -796.773 1046.08 -804.248C1024.19 -811.655 1001.62 -817.173 978.649 -820.734C955.926 -824.307 932.923 -826.107 909.879 -826.116C888.086 -826.063 866.319 -824.722 844.709 -822.101L815.48 -816.093C815.278 -816.063 815.072 -816.063 814.87 -816.093L787.166 -808.092C762.964 -799.499 739.842 -788.462 718.213 -775.176C698.878 -763.297 680.805 -749.72 664.24 -734.629L663.386 -733.889C647.069 -717.955 632.162 -700.815 618.81 -682.636C605.746 -664.52 594.511 -645.313 585.249 -625.26C574.927 -603.199 567.144 -580.177 562.031 -556.581C558.72 -541.469 556.913 -526.104 556.63 -510.681L559.345 -442.856L562.702 -417.229C562.744 -416.895 562.716 -416.555 562.617 -416.231C562.519 -415.907 562.353 -415.604 562.129 -415.339C561.906 -415.075 561.628 -414.854 561.312 -414.69C560.997 -414.525 560.65 -414.421 560.291 -414.382C559.57 -414.317 558.85 -414.515 558.281 -414.934C557.712 -415.353 557.339 -415.961 557.24 -416.632L554.189 -439.411C531.947 -433.999 510.205 -426.934 489.172 -418.283C483.802 -416.005 478.463 -413.756 473.093 -411.563L472.574 -411.193C453.515 -394.766 439.05 -374.238 430.439 -351.398C421.962 -329.42 419.961 -305.721 424.643 -282.775C429.175 -259.491 436.737 -236.809 447.159 -215.235C457.044 -194.677 467.662 -174.289 478.859 -154.557C490.472 -134.395 500.466 -113.456 508.76 -91.914C517.226 -70.3823 524.237 -48.3762 529.75 -26.0252C530.483 -22.8361 531.276 -19.7039 532.069 -16.5148C532.058 -16.4297 532.058 -16.3437 532.069 -16.2586C535.347 6.5257 536.988 29.489 536.981 52.4776C536.907 70.79 535.685 89.0825 533.32 107.262C529.456 130.339 523.181 153.007 514.587 174.944C506.299 196.552 495.549 217.267 482.521 236.733C469.206 256.63 453.969 275.349 436.999 292.656C420.317 309.724 402.472 325.769 383.575 340.691C379.874 343.634 376.111 346.481 372.287 349.234L415.55 334.285C415.884 334.163 416.241 334.106 416.599 334.116C416.958 334.127 417.31 334.205 417.635 334.346C417.96 334.487 418.251 334.688 418.49 334.937C418.73 335.186 418.913 335.477 419.029 335.794C419.288 336.432 419.266 337.14 418.969 337.764C418.672 338.388 418.124 338.877 417.442 339.125L356.97 360.082C333.663 370.486 313.052 385.486 296.56 404.046C281.866 420.488 271.715 440.042 266.995 460.994C261.501 484.194 260.776 508.157 264.86 531.61C268.839 554.964 278.424 577.177 292.899 596.587C299.974 605.953 308.072 614.608 317.063 622.413C335.996 639.213 357.94 652.782 381.897 662.505C405.238 671.884 430.197 677.266 455.58 678.393C480.081 679.601 504.649 678.187 528.805 674.179C552.512 670.131 575.783 664.109 598.338 656.183C621.177 648.186 643.001 637.864 663.416 625.403C685.307 611.958 711.476 605.928 737.556 608.319C747.032 609.246 756.295 611.542 765.016 615.124C765.263 615.219 765.49 615.354 765.687 615.522C786.239 631.518 802.418 651.849 812.886 674.834C817.98 685.848 821.667 697.383 823.87 709.202C823.883 709.354 823.883 709.506 823.87 709.657C823.881 734.445 819.996 759.101 812.337 782.836C805.189 805.364 794.506 826.781 780.637 846.39C773.712 856.348 766.078 865.861 757.785 874.864L757.571 875.177C757.391 875.592 757.083 875.949 756.686 876.202L679.465 939.016C679.465 939.016 679.465 939.016 679.281 939.016C658.704 953.765 635.466 964.961 610.664 972.074C590.344 977.934 569.172 980.816 547.904 980.616C547.386 980.62 546.878 980.489 546.436 980.237C545.993 979.986 545.635 979.624 545.402 979.192C529.802 948.999 510.929 920.376 489.08 893.77C469.524 869.681 447.504 847.423 423.331 827.312C410.389 816.664 396.876 806.638 382.843 797.272C368.649 787.733 353.673 779.25 338.054 771.901C322.013 764.368 305.289 758.174 288.078 753.393C257.193 744.712 225.308 739.502 193.099 737.875C188.584 737.59 183.946 737.334 179.461 737.106C153.579 735.927 127.655 738.423 102.575 744.51C78.0892 750.399 54.8124 760.02 33.683 772.984C25.2927 778.036 17.2991 783.641 9.76282 789.755C-9.00952 806.319 -24.4388 825.898 -35.7891 847.557C-46.8192 868.324 -53.41 890.897 -55.1936 914.015C-57.1495 938.187 -54.7257 962.493 -48.0237 985.912C-41.4021 1009.19 -29.2303 1030.77 -12.4181 1049.04C3.40564 1066.29 22.4077 1080.75 43.6903 1091.75C44.6056 1092.21 45.521 1092.66 46.3752 1093.17C43.3296 1081.44 39.1108 1070 33.7744 1059.01C23.3564 1037.68 8.88464 1018.29 -8.94006 1001.77C-9.45618 1001.28 -9.74524 1000.62 -9.74524 999.936C-9.74524 999.249 -9.45618 998.589 -8.94006 998.099C-8.41125 997.624 -7.70593 997.359 -6.97205 997.359C-6.23816 997.359 -5.53271 997.624 -5.00403 998.099C13.2588 1015.08 28.1177 1034.97 38.8699 1056.84C45.2103 1070 50.0276 1083.76 53.2401 1097.87L65.2916 1155.28C65.2916 1155.28 65.2916 1155.59 65.2916 1155.73C65.8738 1179.99 61.5685 1204.14 52.5995 1226.92C43.8582 1249.33 30.4155 1269.89 13.058 1287.39C6.0531 1294.62 -1.44788 1301.41 -9.39758 1307.73C-9.39758 1307.73 -9.39758 1307.73 -9.58057 1307.73C-31.1733 1322.2 -56.7006 1330.69 -83.2325 1332.24C-87.5345 1332.44 -91.8671 1332.7 -96.23 1332.98C-120.074 1333.4 -143.9 1331.49 -167.319 1327.29C-192.901 1322.69 -217.982 1315.93 -242.252 1307.1C-247.927 1304.99 -253.663 1302.88 -259.491 1300.95C-284.293 1293.91 -310.3 1291.33 -336.133 1293.35C-359.46 1295.2 -382.131 1301.51 -402.737 1311.88C-425.31 1323.33 -446.029 1337.71 -464.276 1354.59C-482.527 1371.43 -499.035 1389.84 -513.581 1409.58C-528.035 1429.24 -540.37 1450.18 -550.407 1472.11C-560.172 1493.45 -566.723 1515.95 -569.872 1538.96C-573.146 1562.53 -572.176 1586.45 -567.004 1609.72C-561.825 1633.3 -553.705 1656.24 -542.81 1678.06C-532.619 1698.3 -521.453 1718.35 -509.248 1737.57C-497.141 1756.78 -483.9 1775.34 -469.585 1793.18C-456.581 1809.27 -442.669 1824.71 -427.908 1839.42L-336.011 1930.05C-319.529 1948.13 -306.626 1968.8 -297.903 1991.1C-288.737 2013.91 -285.191 2038.36 -287.53 2062.63C-289.772 2087.32 -297.02 2111.39 -308.887 2133.56V2133.73C-322.433 2155.2 -339.714 2174.42 -360.022 2190.59C-378.372 2205.01 -398.787 2216.97 -420.677 2226.13C-443.172 2236.66 -467.083 2244.32 -491.766 2248.91C-495.153 2249.5 -498.631 2250.21 -502.017 2250.9H-502.475C-525.419 2252.26 -548.942 2253.49 -572.313 2254.51C-595.82 2255.5 -619.184 2258.47 -642.121 2263.37C-665.481 2268.37 -688.344 2275.21 -710.464 2283.81C-733.062 2292.57 -754.669 2303.4 -774.963 2316.16C-789.212 2325.1 -802.791 2334.94 -815.603 2345.6C-834.362 2362.11 -850.009 2381.45 -861.887 2402.81C-872.447 2421.78 -879.893 2442.13 -883.976 2463.17C-884.396 2487.77 -887.462 2512.27 -893.129 2536.29C-898.127 2557.64 -905.351 2578.48 -914.7 2598.51C-923.574 2617.71 -933.681 2636.39 -944.966 2654.46C-949.909 2662.4 -955.004 2670.58 -960.008 2678.75C-973.426 2699.17 -988.33 2718.71 -1004.61 2737.23C-1017.58 2751.81 -1031.43 2765.94 -1045.8 2779.29C-1056.15 2790.31 -1066.55 2801.47 -1076.8 2812.58C-1092.3 2829.23 -1107.95 2846.2 -1123.33 2863C-1136.39 2877.49 -1149.46 2891.96 -1162.54 2906.43C-1177.79 2923.23 -1193.56 2939.83 -1209.7 2955.77C-1220.35 2966.22 -1231.49 2976.73 -1242.81 2987.09L-1341.14 3074.79L-1585.07 3293.13L-1615.58 3319.13L-1617.2 3320.64C-1626.81 3329.46 -1636.85 3338.26 -1647.13 3346.86C-1657.41 3355.46 -1667.21 3363.78 -1676.39 3371.72C-1685.57 3379.66 -1694.7 3387.52 -1703.03 3394.9C-1711.57 3402.41 -1720.61 3409.42 -1730.09 3415.88C-1736.95 3420.04 -1742.27 3426.06 -1745.34 3433.14H-1745.47ZM-1751.05 3433.99C-1751.01 3433.1 -1750.84 3432.22 -1750.53 3431.37C-1747.04 3423.31 -1740.97 3416.45 -1733.14 3411.73C-1723.85 3405.39 -1715 3398.53 -1706.63 3391.17C-1698.21 3383.82 -1689.27 3375.99 -1679.96 3367.99C-1670.65 3359.99 -1660.89 3351.59 -1650.61 3343.05C-1640.33 3334.5 -1630.44 3325.73 -1620.89 3316.99L-1619.31 3315.51L-1588.98 3289.52L-1345.08 3071.26L-1246.71 2983.53C-1235.49 2973.31 -1224.44 2962.86 -1213.79 2952.5C-1197.71 2936.61 -1181.94 2920.09 -1166.84 2903.38L-1127.6 2859.93C-1112.35 2843.1 -1096.57 2826.07 -1081.07 2809.44C-1070.82 2798.34 -1060.33 2787.12 -1050.01 2776.1C-1035.7 2762.83 -1021.94 2748.77 -1009.1 2734.3C-992.996 2716.01 -978.256 2696.7 -964.981 2676.53C-959.978 2668.36 -954.913 2660.18 -949.94 2652.18C-938.78 2634.29 -928.775 2615.8 -919.978 2596.8C-910.737 2577.09 -903.584 2556.59 -898.621 2535.58C-893.008 2511.82 -889.993 2487.59 -889.621 2463.26C-889.621 2463.26 -889.621 2463 -889.621 2462.8C-885.397 2441.04 -877.694 2419.99 -866.768 2400.36C-854.595 2378.48 -838.544 2358.67 -819.294 2341.79C-806.279 2330.94 -792.487 2320.93 -778.014 2311.83C-757.41 2298.92 -735.476 2287.96 -712.539 2279.12C-690.153 2270.37 -667.002 2263.45 -643.341 2258.42C-620.077 2253.43 -596.374 2250.43 -572.527 2249.45C-549.278 2248.45 -525.907 2247.22 -503.024 2245.86C-499.577 2245.17 -496.159 2244.49 -492.803 2243.89C-468.58 2239.38 -445.113 2231.86 -423.026 2221.54C-401.592 2212.59 -381.599 2200.9 -363.623 2186.8C-343.797 2171.08 -326.917 2152.38 -313.677 2131.48C-302.125 2109.87 -295.074 2086.41 -292.9 2062.34C-290.67 2038.87 -294.132 2015.23 -303.029 1993.18C-311.495 1971.47 -324.038 1951.33 -340.069 1933.73L-431.935 1843.15C-446.76 1828.22 -460.752 1812.58 -473.856 1796.31C-488.314 1778.31 -501.708 1759.58 -513.977 1740.22C-526.182 1720.83 -537.531 1700.67 -547.844 1680.28C-558.898 1658.09 -567.141 1634.77 -572.405 1610.8C-577.744 1586.99 -578.776 1562.52 -575.456 1538.39C-572.271 1514.86 -565.586 1491.86 -555.594 1470.06C-545.382 1447.81 -532.832 1426.55 -518.127 1406.62C-503.376 1386.62 -486.644 1367.96 -468.151 1350.89C-449.527 1333.66 -428.388 1318.96 -405.361 1307.24C-384.091 1296.56 -360.692 1290.07 -336.621 1288.19C-310.047 1286.13 -283.295 1288.78 -257.782 1296.02C-251.894 1297.99 -246.036 1300.09 -240.33 1302.26C-216.385 1310.98 -191.641 1317.65 -166.404 1322.19C-143.416 1326.39 -120.016 1328.3 -96.5962 1327.88C-92.3247 1327.6 -87.9922 1327.4 -83.6598 1327.14C-58.2247 1325.68 -33.7461 1317.56 -13.0283 1303.71C-5.29468 1297.49 2.02136 1290.84 8.87805 1283.78C25.715 1266.75 38.7705 1246.77 47.2906 1225.01C55.9238 1202.88 60.0625 1179.44 59.4949 1155.9L47.7483 1099.89L40.792 1096.25C19.0214 1084.93 -0.41272 1070.08 -16.5979 1052.4C-33.925 1033.51 -46.4425 1011.21 -53.2103 987.165C-60.0787 963.21 -62.5648 938.344 -60.5635 913.617C-58.7272 889.845 -51.95 866.634 -40.6097 845.279C-28.9955 823.019 -13.1711 802.897 6.10181 785.882C13.8468 779.569 22.0759 773.792 30.7234 768.599C52.3811 755.358 76.2219 745.527 101.294 739.498C126.873 733.239 153.321 730.637 179.736 731.782C184.312 732.01 188.889 732.237 193.466 732.522C226.149 734.235 258.501 739.549 289.848 748.354C307.351 753.244 324.36 759.561 340.678 767.232C356.557 774.697 371.778 783.323 386.199 793.029C400.414 802.494 414.082 812.654 427.144 823.468C451.585 843.805 473.851 866.31 493.626 890.667C515.347 917.145 534.164 945.59 549.796 975.576C569.92 975.586 589.934 972.784 609.169 967.262C633.32 960.294 655.954 949.381 676.017 935.029L752.964 872.386L753.178 872.045C753.28 871.88 753.403 871.727 753.544 871.589C761.781 862.73 769.335 853.339 776.152 843.485C789.751 824.318 800.219 803.369 807.212 781.327C814.681 758.143 818.483 734.066 818.5 709.857C816.359 698.5 812.806 687.415 807.913 676.827C797.925 654.684 782.449 635.07 762.758 619.594C754.653 616.296 746.048 614.193 737.251 613.358C712.407 611.109 687.488 616.878 666.65 629.703C645.904 642.383 623.721 652.887 600.504 661.024C577.639 669.081 554.04 675.19 529.995 679.276C505.378 683.378 480.337 684.82 455.366 683.575C429.328 682.425 403.727 676.897 379.792 667.26C355.246 657.307 332.755 643.42 313.341 626.229C304.067 618.16 295.723 609.208 288.444 599.52C273.479 579.501 263.579 556.573 259.49 532.464C255.285 508.368 256.041 483.744 261.717 459.912C266.62 438.198 277.16 417.939 292.411 400.914C309.367 381.81 330.56 366.364 354.53 355.64C363.256 349.661 371.829 343.339 380.036 336.904C398.745 322.118 416.417 306.226 432.941 289.324C449.674 272.24 464.707 253.769 477.853 234.142C490.723 214.94 501.34 194.502 509.522 173.179C517.912 151.572 524.043 129.258 527.828 106.55C530.153 88.597 531.345 70.5324 531.398 52.4492C531.479 29.778 529.92 7.12756 526.73 -15.3475C525.967 -18.5081 525.204 -21.6687 524.442 -24.7724C518.985 -46.9012 512.045 -68.6887 503.664 -90.0062C495.457 -111.338 485.554 -132.067 474.039 -152.023C462.841 -171.954 452.132 -192.399 442.247 -213.042C431.605 -234.989 423.899 -258.075 419.303 -281.779C414.492 -305.59 416.599 -330.169 425.405 -352.964C434.326 -376.621 449.328 -397.876 469.096 -414.866L469.462 -415.208C469.607 -415.335 469.771 -415.44 469.95 -415.521L470.561 -415.891L470.896 -416.034L487.158 -422.81C508.74 -431.687 531.055 -438.924 553.884 -444.451L551.26 -510.368C551.26 -510.368 551.26 -510.368 551.26 -510.51C551.592 -526.295 553.451 -542.02 556.813 -557.492C561.996 -581.428 569.881 -604.783 580.337 -627.168C589.726 -647.511 601.104 -667.003 614.325 -685.398C627.807 -703.893 642.911 -721.312 659.48 -737.476L660.396 -738.302C677.248 -753.644 695.638 -767.441 715.314 -779.504C737.333 -792.996 760.864 -804.205 785.488 -812.933H785.671L813.893 -821.076C814.203 -821.151 814.52 -821.199 814.839 -821.219L843.854 -827.17H844.098C865.904 -829.91 887.876 -831.337 909.879 -831.441C933.226 -831.344 956.524 -829.439 979.534 -825.746C1002.85 -822.153 1025.76 -816.558 1047.97 -809.032C1069.97 -801.638 1091.3 -792.591 1111.74 -781.981C1131.78 -795.055 1154.1 -804.803 1177.7 -810.797C1202.84 -817.044 1229.15 -818.016 1254.74 -813.644C1277.75 -809.854 1300.08 -803.098 1321.1 -793.57C1345.01 -782.754 1367.19 -768.877 1387 -752.34C1405.97 -736.241 1422.53 -717.834 1436.24 -697.613C1449.35 -678.143 1460.42 -657.536 1469.29 -636.081C1477.97 -615.175 1484.6 -593.58 1489.12 -571.559C1493.8 -549.295 1496.29 -526.677 1496.56 -503.99C1497.04 -481.411 1496.02 -458.826 1493.51 -436.364C1490.98 -413.964 1486.98 -391.731 1481.52 -369.792C1475.78 -346.872 1467.78 -324.499 1457.6 -302.963C1453.41 -293.812 1448.58 -284.928 1443.14 -276.369C1432.27 -259.898 1419.46 -244.616 1404.94 -230.81C1403.11 -229.102 1401.25 -227.365 1399.51 -225.685C1399.51 -223.065 1399.23 -220.474 1399.08 -217.883C1397.17 -195.641 1391.32 -173.849 1381.78 -153.389C1371.78 -131.767 1357.96 -111.863 1340.9 -94.5052C1323.31 -76.6353 1303.18 -61.0962 1281.07 -48.3203C1258.98 -35.563 1235.05 -25.821 1210.01 -19.3907C1186.36 -13.3394 1162.18 -9.24231 1137.76 -7.14697C1113.56 -5.1449 1089.23 -4.90686 1064.99 -6.43512C1040.5 -8.06989 1016.18 -11.4876 992.257 -16.6573H987.223C962.188 -16.3485 937.266 -13.4841 912.899 -8.11505C891.162 -3.39972 869.923 3.12811 849.438 11.3896H849.102C848.652 11.7466 848.101 11.9741 847.516 12.0446C847.516 12.0446 847.516 12.0446 847.302 12.0446L846.661 12.4147C846.661 12.4147 846.661 12.4147 846.478 12.5571C841.536 15.4045 836.532 18.0811 831.65 21.0993C809.788 33.4911 789.493 48.1434 771.148 64.7784L750.554 88.9813C735.611 108.229 724.463 129.808 717.633 152.706C712.876 168.561 710.052 184.866 709.212 201.311L713.301 247.98C718.63 270.596 729.119 291.875 744.055 310.367C758.985 329.113 777.952 344.739 799.737 356.238C809.113 361.145 818.757 365.593 828.63 369.564C849.712 379.188 870.429 389.724 890.322 400.885C910.214 412.047 929.985 424.263 948.444 437.047C966.903 449.832 985.056 463.728 1002.2 478.164C1019.35 492.6 1035.52 506.837 1051.23 522.042C1066.95 537.247 1082.11 553.364 1096.39 569.594C1105.54 579.93 1114.88 590.465 1123.85 600.915C1123.84 601.001 1123.84 601.086 1123.85 601.172L1124.79 602.538C1138.3 623.123 1150.32 644.526 1160.77 666.605C1164.73 674.976 1168.67 683.376 1172.66 691.747C1172.7 691.877 1172.75 692.001 1172.82 692.118L1187.46 744.567C1193.29 767.405 1195.07 790.98 1192.74 814.356C1190.39 838.362 1182.68 861.641 1170.1 882.694C1157.69 903.873 1141.24 922.758 1121.56 938.418C1101.58 954.224 1077.49 964.84 1051.72 969.198C1032.47 972.453 1012.77 972.578 993.477 969.568C982.662 981.147 973.135 993.721 965.042 1007.1C952.334 1027.83 942.95 1050.2 937.186 1073.47C934.843 1083.01 931.458 1092.3 927.087 1101.2C925.576 1104.35 923.514 1107.24 920.985 1109.75C915.828 1114.79 910.428 1119.77 904.967 1124.5C886.284 1141.76 865.449 1156.88 842.908 1169.51C820.608 1181.92 796.765 1191.74 771.911 1198.76C761.907 1201.58 751.715 1203.8 741.401 1205.39C717.193 1209.17 692.717 1211.26 668.176 1211.65C643.705 1211.99 619.238 1210.75 594.951 1207.92C578.476 1206.07 562.126 1203.34 545.982 1199.75C559.378 1206.72 572.116 1214.74 584.059 1223.73C604.726 1239.2 622.571 1257.69 636.903 1278.48C650.859 1298.61 661.6 1320.53 668.786 1343.55C675.986 1366.92 677.857 1391.44 674.278 1415.53C670.702 1439.81 661.89 1463.16 648.375 1484.18C634.599 1505.87 615.009 1523.84 591.534 1536.31C568.829 1548.61 542.516 1553.82 516.417 1551.21C493.622 1549.18 471.008 1545.65 448.746 1540.64C424.895 1534.67 400.176 1532.29 375.521 1533.58C363.378 1534.23 351.325 1535.92 339.519 1538.65C336.208 1545.95 334.348 1553.76 334.027 1561.69C333.417 1580.92 340.263 1599.72 353.309 1614.62C363.403 1626.52 375.636 1636.69 389.464 1644.69C389.767 1644.86 390.036 1645.08 390.257 1645.34C406.14 1665.4 416.805 1688.63 421.408 1713.2C425.96 1736.76 423.749 1761.04 415.001 1783.55C406.127 1806.7 392.891 1828.17 375.917 1846.97C359.236 1865.68 337.6 1879.99 313.158 1888.48C289.615 1896.7 264.465 1900.15 239.384 1898.59C213.29 1897.03 187.587 1891.87 163.108 1883.3C155.785 1880.74 148.524 1877.8 141.506 1874.59C152.148 1895.17 160.629 1916.66 166.83 1938.77C168.722 1946.65 170.552 1954.46 172.353 1962.37C172.373 1962.51 172.373 1962.66 172.353 1962.8C173.521 1985.89 171.116 2009.02 165.213 2031.48C159.105 2055.2 148.582 2077.73 134.123 2098.05C120.32 2117.65 103.918 2135.54 85.3064 2151.3C68.0232 2165.96 49.2639 2179.03 29.2896 2190.33C7.80042 2202.6 -15.2117 2212.37 -39.2367 2219.43C-59.0903 2225.24 -78.2502 2232.94 -96.4131 2242.41C-116.068 2254.56 -134.347 2268.55 -150.966 2284.16C-165.765 2297.82 -179.223 2312.7 -191.178 2328.6C-205.199 2347.23 -215.856 2367.87 -222.726 2389.71C-230.053 2412.69 -232.59 2436.77 -230.201 2460.64C-227.943 2478.63 -225.777 2497.08 -223.733 2515.36C-223.733 2515.36 -223.733 2515.51 -223.733 2515.56C-223.655 2517.66 -223.975 2519.75 -224.678 2521.74C-232.237 2542.72 -243.999 2562.16 -259.338 2579.03C-276.284 2597.85 -296.068 2614.27 -318.071 2627.78C-339.768 2641.2 -363.395 2651.68 -388.244 2658.9C-412.186 2665.93 -436.985 2670.09 -462.049 2671.29C-466.076 2671.46 -470.134 2671.69 -474.253 2671.83C-499.741 2673.93 -525.419 2672.66 -550.529 2668.07L-569.872 2664.54L-607.156 2680.26C-607.304 2680.32 -607.457 2680.37 -607.614 2680.4L-607.98 2680.6C-628.94 2690.22 -649.748 2700.53 -669.855 2711.52C-689.961 2722.51 -709.518 2733.93 -728.679 2746.23C-746.985 2757.99 -765.291 2770.43 -782.773 2783.25C-788.143 2787.21 -793.483 2791.11 -798.791 2795.06L-900.086 2871.37L-1169.1 3056.8L-1272.28 3128.78L-1552.98 3326.13L-1553.46 3326.42L-1610.21 3366.54L-1610.61 3366.77C-1610.78 3367.02 -1611.01 3367.25 -1611.28 3367.42C-1617.38 3371.49 -1623.49 3375.68 -1629.59 3379.89C-1640.33 3387.32 -1651.19 3394.95 -1661.87 3402.67C-1672.55 3410.39 -1683.22 3418.16 -1693.26 3426.05C-1703.98 3434.34 -1715.89 3441.19 -1728.65 3446.38C-1730.75 3447.27 -1733.04 3447.68 -1735.34 3447.57C-1738.83 3447.6 -1742.24 3446.57 -1745.05 3444.64C-1747.87 3442.71 -1749.94 3439.99 -1750.96 3436.87C-1750.94 3436.78 -1750.94 3436.7 -1750.96 3436.61C-1751.16 3435.75 -1751.24 3434.87 -1751.17 3433.99" fill="white"/>
</g>
</svg>
